<?xml version="1.0" standalone="no"?>
<!DOCTYPE svg PUBLIC "-//W3C//DTD SVG 20010904//EN"
 "http://www.w3.org/TR/2001/REC-SVG-20010904/DTD/svg10.dtd">
<svg version="1.0" xmlns="http://www.w3.org/2000/svg"
 width="550.000000pt" height="408.000000pt" viewBox="0 0 550.000000 408.000000"
 preserveAspectRatio="xMidYMid meet">
<metadata>
Created by potrace 1.15, written by Peter Selinger 2001-2017
</metadata>
<g transform="translate(0.000000,408.000000) scale(0.100000,-0.100000)"
fill="#000000" stroke="none">
<path d="M2950 4004 c-96 -30 -242 -75 -325 -100 -82 -25 -190 -59 -240 -74
-49 -16 -160 -49 -245 -75 -85 -26 -195 -60 -245 -75 -49 -16 -148 -47 -220
-69 -71 -22 -211 -66 -310 -97 -99 -31 -207 -65 -240 -74 -243 -70 -632 -200
-636 -213 -8 -27 -14 -198 -8 -242 5 -33 13 -93 18 -132 12 -85 58 -186 87
-191 10 -2 28 -12 39 -22 28 -25 80 -50 103 -50 11 0 25 -6 31 -14 9 -11 6
-15 -16 -19 -16 -2 -91 -16 -168 -30 -147 -26 -175 -34 -175 -47 0 -14 29 -32
40 -25 6 4 20 -1 31 -11 18 -16 22 -17 30 -4 22 37 27 42 39 35 10 -6 9 -9 0
-15 -7 -4 -13 -19 -13 -34 0 -16 -5 -26 -14 -26 -12 0 -12 -2 1 -15 13 -14 26
-14 115 0 122 18 155 19 145 4 -8 -14 39 -56 91 -80 22 -10 55 -34 74 -53 19
-19 38 -33 43 -30 4 3 6 10 3 15 -4 5 -2 9 3 9 5 0 14 -10 20 -23 19 -40 14 7
-6 55 -26 59 -37 122 -21 112 8 -4 10 -3 5 5 -4 6 -2 18 4 26 6 8 9 19 5 25
-11 18 12 11 167 -50 158 -62 194 -76 338 -130 47 -18 99 -38 115 -45 17 -7
54 -21 83 -31 57 -21 67 -34 24 -34 -57 0 -503 -59 -520 -69 -22 -13 -17 -14
108 -12 58 1 126 -2 151 -7 26 -5 73 -5 105 -1 33 4 111 12 174 18 99 10 117
9 126 -4 6 -8 19 -15 28 -15 20 0 77 -49 74 -64 -3 -21 21 -63 39 -70 15 -6
16 -9 3 -16 -18 -10 -198 -37 -331 -50 -185 -18 -350 -38 -356 -43 -13 -13 50
-18 94 -8 27 6 75 13 108 16 33 2 105 8 160 14 55 5 120 7 145 4 43 -6 44 -7
16 -14 -17 -5 -84 -13 -150 -19 -67 -6 -132 -13 -146 -15 -14 -3 -79 -12 -145
-20 -66 -8 -133 -17 -150 -20 -29 -5 -29 -4 5 9 41 17 27 21 -18 5 -27 -9 -52
-43 -40 -54 2 -3 151 13 330 35 371 45 571 59 582 41 4 -6 16 -11 27 -11 10 0
19 -4 19 -9 0 -5 16 -12 36 -16 24 -4 38 -13 41 -26 3 -10 10 -19 17 -20 26
-1 -71 -29 -190 -54 -71 -14 -210 -46 -309 -70 -218 -54 -363 -87 -389 -90
-11 -1 -22 -8 -24 -15 -3 -9 1 -11 14 -6 71 27 389 90 405 80 6 -3 15 -1 19 5
8 14 120 32 151 24 15 -4 20 -3 15 5 -5 8 3 10 26 6 19 -3 28 -2 21 3 -6 4 13
8 45 8 33 0 72 7 93 17 19 9 55 20 80 24 24 3 89 14 144 24 55 11 111 19 125
19 31 0 122 18 98 20 -10 1 -18 6 -18 11 0 10 32 15 78 12 12 0 22 3 22 9 0 5
14 9 31 9 16 0 28 4 25 9 -4 5 2 7 12 4 11 -2 45 3 78 13 33 9 85 16 119 15
33 -1 56 1 52 5 -13 13 47 36 81 30 19 -3 30 -1 27 5 -4 5 8 9 24 9 17 0 31 5
31 10 0 6 8 10 18 10 30 0 157 33 163 43 4 5 12 7 17 3 6 -4 19 -2 29 3 10 5
43 15 73 21 30 7 73 16 95 22 22 5 60 13 85 18 25 5 69 14 99 20 56 12 106 6
96 -10 -7 -11 -1 -12 63 -14 27 -1 41 3 38 10 -3 7 5 9 20 6 34 -6 22 -17 -33
-32 -73 -20 -28 -23 87 -5 123 18 120 18 120 4 0 -7 -11 -9 -27 -5 -16 3 -22
3 -15 0 22 -10 13 -22 -24 -29 -20 -3 -34 -8 -31 -11 2 -2 36 3 74 12 39 10
78 14 88 10 25 -9 15 -16 -42 -26 l-48 -9 56 4 c31 3 75 12 99 20 24 8 68 18
99 22 31 3 59 10 62 15 3 5 37 14 75 19 85 13 99 25 44 34 -45 8 -38 24 10 25
14 0 32 5 40 11 12 8 11 9 -5 5 -11 -3 -36 -1 -55 3 -22 6 -27 9 -14 10 12 1
45 8 73 17 50 17 60 34 18 34 -35 0 -6 17 38 23 22 2 96 14 165 26 69 12 145
24 169 29 43 7 70 32 35 32 -9 0 -14 3 -11 7 7 7 -31 53 -44 53 -3 0 -9 -8
-12 -19 -4 -15 -21 -20 -103 -30 -55 -7 -164 -21 -244 -32 -135 -18 -224 -29
-645 -80 -202 -24 -567 -59 -617 -59 -21 0 -38 4 -38 9 0 11 -146 45 -160 36
-6 -4 -21 2 -33 13 -12 11 -29 22 -37 24 -8 3 5 8 30 13 75 12 81 25 11 21
l-64 -4 43 19 c23 10 50 19 60 19 10 0 20 4 22 9 6 16 138 70 196 81 32 5 131
19 222 31 186 23 396 50 610 79 80 10 168 21 195 24 222 24 612 74 634 82 10
3 4 13 -19 34 -24 21 -36 27 -41 18 -6 -9 -11 -9 -23 1 -8 7 -20 10 -25 6 -7
-3 -8 0 -5 10 5 12 9 13 20 4 8 -7 17 -9 20 -6 7 6 -26 38 -106 102 -129 103
-190 158 -190 171 0 13 25 26 226 113 121 52 139 73 78 90 -22 6 -42 7 -48 2
-10 -9 -164 -77 -286 -126 -83 -34 -295 -122 -385 -160 -44 -19 -168 -70 -275
-115 -207 -86 -437 -183 -610 -257 -58 -24 -136 -57 -175 -73 -38 -16 -119
-50 -180 -76 -60 -25 -216 -89 -345 -141 l-235 -96 -78 27 c-91 31 -497 186
-677 258 -69 28 -159 63 -200 78 -113 42 -364 140 -560 221 -138 56 -189 72
-242 76 l-68 6 6 38 c4 23 2 44 -5 52 -6 8 -8 16 -6 19 3 3 1 27 -5 53 -14 63
-24 235 -16 278 4 21 15 39 30 46 21 12 45 6 212 -54 317 -113 497 -177 539
-190 22 -8 99 -34 170 -60 72 -26 290 -101 485 -167 l355 -121 180 71 c194 76
493 190 1000 382 409 154 469 177 530 202 28 11 138 54 245 95 107 41 283 108
390 150 107 41 210 81 228 87 50 19 60 33 31 45 -13 6 -112 31 -219 56 -321
75 -484 114 -705 171 -272 68 -371 95 -645 169 -200 54 -221 54 -430 -11z
m1589 -1394 c6 0 11 8 12 18 0 11 2 12 6 4 3 -7 -1 -27 -8 -44 -10 -24 -10
-33 -1 -36 7 -2 12 -10 12 -18 0 -10 11 -14 38 -12 36 1 36 1 5 5 -20 3 -33
10 -33 19 0 11 12 13 58 10 31 -3 47 -3 35 0 -45 10 -24 26 25 19 67 -9 146
-7 150 5 6 16 39 11 46 -6 5 -13 15 -15 46 -11 22 3 42 2 45 -2 7 -12 -47 -34
-54 -23 -11 17 -46 21 -121 13 l-75 -8 85 -3 c72 -2 79 -3 45 -10 -74 -14
-211 -22 -195 -11 13 9 13 11 -2 11 -10 0 -18 -6 -18 -14 0 -16 -33 -23 -170
-36 -99 -9 -238 -24 -375 -40 -215 -26 -277 -31 -283 -25 -11 11 22 25 59 25
20 0 39 3 43 7 4 5 35 6 68 4 42 -2 58 0 54 8 -4 6 -17 11 -29 11 -12 0 -29 5
-37 10 -10 6 2 8 36 4 47 -6 52 -5 59 17 l8 24 4 -22 c5 -28 29 -30 38 -3 3
11 13 20 21 20 8 0 17 7 21 16 5 13 10 12 30 -10 13 -14 33 -26 45 -26 11 0
26 -7 33 -17 8 -11 14 -13 19 -4 4 6 0 14 -8 17 -9 3 -16 15 -16 25 0 10 -4
19 -10 19 -5 0 -10 -7 -10 -15 0 -17 -16 -20 -24 -6 -14 21 7 43 36 39 21 -3
32 0 39 14 15 28 29 21 29 -15 0 -30 4 -35 38 -46 46 -15 77 -12 77 9 0 10
-13 16 -42 18 -34 3 -43 7 -43 22 0 28 19 35 35 14 14 -18 14 -18 15 4 0 19 5
22 38 22 27 0 41 6 51 22 12 20 14 20 26 5 7 -9 17 -17 24 -17z m356 -380
c-19 -8 -19 -9 -1 -9 74 -3 -124 -35 -354 -57 -30 -3 -84 -10 -120 -15 -36 -6
-105 -14 -155 -19 -49 -5 -139 -17 -200 -26 -60 -8 -132 -17 -160 -19 -27 -1
-90 -7 -140 -13 -153 -19 -194 -22 -200 -13 -3 5 16 9 43 10 49 1 62 2 127 19
22 6 90 16 150 22 61 6 137 15 170 20 115 18 211 30 435 56 124 14 261 31 305
39 44 7 89 13 100 13 l20 1 -20 -9z"/>
<path d="M329 2473 c-19 -5 -29 -44 -29 -112 0 -60 19 -162 32 -179 6 -7 11
-27 10 -44 -1 -35 34 -84 58 -82 8 0 25 -5 38 -13 24 -15 28 -7 9 18 -13 17
-47 33 -61 30 -5 -1 -4 4 2 11 7 9 8 32 2 73 -4 33 -8 102 -7 153 2 80 0 92
-15 92 -24 0 -34 21 -14 32 33 19 17 33 -25 21z"/>
<path d="M4762 2030 c3 -45 1 -60 -9 -60 -7 0 -13 5 -13 11 0 5 -4 8 -10 4 -5
-3 -7 -12 -3 -20 4 -11 -2 -15 -20 -15 -14 0 -29 -5 -33 -11 -4 -7 1 -9 15 -5
11 3 30 9 41 12 42 12 18 -13 -32 -34 -63 -26 -172 -54 -667 -173 -350 -83
-434 -104 -756 -179 -66 -16 -136 -31 -155 -35 -59 -11 -659 -156 -750 -181
-142 -40 -122 -47 26 -9 99 25 150 32 106 14 -22 -8 -191 -50 -827 -205 -207
-51 -315 -86 -315 -103 0 -3 23 -19 51 -36 28 -16 59 -34 68 -40 39 -24 354
-223 435 -277 49 -32 94 -58 100 -58 6 0 39 11 73 25 124 50 191 76 408 155
121 45 254 94 295 110 75 29 238 91 535 202 88 33 214 80 280 105 66 25 210
78 320 119 110 41 216 81 235 89 37 15 289 107 425 155 44 16 143 52 220 80
77 28 196 71 264 96 l124 44 -7 -61 c-4 -33 -10 -67 -13 -75 -3 -8 0 -14 6
-14 15 0 179 98 188 113 4 7 29 25 54 40 26 14 49 33 52 41 7 17 -9 22 -387
136 -131 40 -253 78 -272 86 -54 23 -56 20 -52 -46z"/>
<path d="M424 1981 c1 -22 -6 -27 -64 -43 -110 -31 -225 -70 -234 -79 -10 -9
-10 -250 0 -281 3 -10 10 -18 17 -18 13 0 67 -50 67 -62 0 -5 -17 -16 -37 -24
-21 -9 -64 -27 -97 -42 l-58 -26 5 -65 c7 -92 27 -146 53 -146 11 0 27 -5 35
-11 8 -6 86 -44 174 -84 88 -40 187 -85 220 -100 33 -15 80 -37 105 -48 25
-11 149 -69 275 -127 127 -59 241 -111 254 -117 24 -9 660 -302 766 -353 86
-41 491 -222 687 -306 l66 -29 119 68 c65 38 213 124 328 191 116 68 262 153
325 190 63 37 210 123 325 191 116 68 235 138 265 155 30 18 107 63 170 100
63 38 255 150 425 250 474 279 735 433 824 489 34 22 40 30 32 44 -14 26 -83
46 -96 29 -5 -8 -47 -36 -91 -64 -61 -38 -85 -48 -98 -41 -11 6 -25 4 -44 -6
-35 -19 -249 -104 -524 -207 -120 -45 -223 -84 -338 -127 -58 -22 -276 -104
-485 -182 -209 -77 -425 -158 -480 -179 -55 -22 -140 -54 -190 -71 -49 -18
-105 -39 -124 -47 -18 -8 -65 -26 -105 -39 -39 -14 -80 -29 -91 -34 -19 -10
-127 -49 -285 -105 -36 -12 -94 -35 -130 -50 -36 -15 -76 -31 -90 -36 -14 -4
-50 -17 -80 -29 -30 -12 -93 -35 -140 -52 -47 -16 -90 -34 -97 -40 -8 -6 -39
9 -100 49 -48 31 -96 62 -105 68 -9 5 -115 76 -235 157 -601 407 -1031 697
-1202 811 -80 54 -149 106 -153 115 -9 22 -9 132 0 155 7 15 19 10 102 -44 52
-34 141 -91 197 -128 57 -36 204 -131 328 -211 124 -80 276 -178 337 -217 61
-40 113 -71 115 -69 2 2 -36 46 -84 97 -48 51 -128 136 -178 188 -49 53 -155
162 -235 244 -225 231 -262 271 -306 323 -36 43 -41 46 -40 25z m-332 -685 c2
-11 13 -20 28 -22 23 -3 23 -3 8 10 -54 41 19 32 122 -15 96 -45 183 -83 268
-119 28 -12 52 -26 52 -30 0 -4 21 -13 48 -20 26 -7 101 -39 167 -70 66 -31
131 -61 144 -65 13 -4 42 -18 65 -31 22 -12 67 -37 99 -54 53 -28 76 -47 42
-34 -8 4 -15 1 -15 -5 0 -6 -4 -11 -10 -11 -9 0 -297 125 -425 185 -27 12 -79
36 -115 53 -36 16 -95 43 -132 61 -37 17 -69 31 -71 31 -3 0 -48 20 -101 45
-96 44 -139 55 -151 35 -11 -18 -23 -11 -34 21 -13 39 -15 77 -2 64 5 -6 11
-19 13 -29z m3398 -637 l-25 -21 30 6 30 6 -25 -15 c-29 -17 -44 -19 -35 -5 3
6 -1 10 -9 10 -9 0 -16 -4 -16 -8 0 -5 -16 -16 -35 -25 -19 -9 -35 -23 -35
-31 0 -9 -10 -20 -22 -26 -21 -10 -21 -10 -5 3 25 21 21 28 -8 15 -14 -6 -25
-18 -25 -25 0 -8 -4 -12 -9 -8 -11 6 -61 -15 -61 -27 0 -13 -39 -48 -52 -48
-9 0 -8 4 2 10 13 9 13 10 -1 10 -8 0 -24 -7 -35 -15 -19 -14 -19 -14 1 -15
15 -1 11 -6 -15 -18 -19 -9 -37 -19 -40 -23 -10 -11 -151 -88 -145 -80 3 5 -4
7 -16 4 -14 -4 -17 -8 -9 -13 9 -5 5 -10 -11 -16 -13 -4 -27 -7 -31 -6 -5 1
-8 -2 -8 -8 0 -5 -7 -10 -15 -10 -8 0 -15 -4 -15 -8 0 -5 -12 -15 -27 -22 -16
-8 -40 -23 -55 -33 -16 -10 -33 -15 -39 -11 -8 4 -9 3 -5 -5 4 -6 0 -14 -11
-18 -10 -3 -27 -14 -39 -25 -24 -22 -26 -21 -165 44 -49 22 -89 45 -89 51 0 5
8 6 18 2 9 -4 37 -11 62 -16 25 -5 66 -20 91 -33 37 -19 50 -21 60 -12 15 13
204 126 212 126 2 0 44 24 93 53 49 30 134 78 189 107 55 29 118 63 140 75 97
55 167 95 187 110 33 22 47 18 18 -6z"/>
<path d="M3169 1796 c-2 -2 -17 -6 -34 -9 -16 -3 -45 -10 -63 -16 -18 -5 -35
-10 -37 -10 -10 0 -162 -33 -220 -48 -33 -8 -94 -21 -137 -28 -42 -8 -105 -20
-140 -29 -34 -8 -115 -26 -178 -40 -63 -15 -164 -38 -225 -52 -60 -14 -137
-31 -170 -38 -108 -23 -285 -69 -281 -73 2 -2 74 12 160 32 269 61 460 103
496 110 48 9 268 57 480 106 96 22 207 47 245 56 90 20 157 42 129 43 -11 0
-23 -2 -25 -4z"/>
</g>
</svg>
